<svg version="1.1" id="Layer_1" xmlns="http://www.w3.org/2000/svg" xmlns:xlink="http://www.w3.org/1999/xlink" x="0px" y="0px"
	 width="100%" viewBox="0 0 107 107" enable-background="new 0 0 107 107" xml:space="preserve">
<path fill="#020101" opacity="1.000000" stroke="none" 
	d="
M108.000000,71.000000 
	C108.000000,83.320259 108.000000,95.640511 108.000000,107.980385 
	C72.384239,107.980385 36.768459,107.980385 1.076342,107.980385 
	C1.076342,72.422180 1.076342,36.844162 1.076342,1.133069 
	C36.666370,1.133069 72.333099,1.133069 107.999924,1.126474 
	C108.000000,19.100815 108.000000,37.081749 107.823944,55.920704 
	C104.059654,52.885082 100.471413,48.991436 96.873230,44.841141 
	C96.589767,44.405426 96.316246,44.226372 96.039124,44.006516 
	C96.035515,43.965717 95.953804,43.971420 95.807419,43.684502 
	C95.094933,43.206841 94.528831,43.016094 93.516457,42.742714 
	C89.769226,42.741463 86.468285,42.822838 82.870544,42.776840 
	C82.149071,42.605999 81.724388,42.562534 81.271027,42.097633 
	C80.461418,39.115597 83.142372,34.648064 77.648781,34.658745 
	C60.765285,34.691566 43.882023,34.842052 26.701794,34.945244 
	C26.200506,35.265736 25.996090,35.587788 25.838917,35.904045 
	C25.886158,35.898254 25.869997,35.804447 25.634666,35.921089 
	C25.370773,36.363964 25.342211,36.690189 25.245537,37.479095 
	C25.064526,44.160782 24.951630,50.379791 24.476322,56.570961 
	C20.218615,55.832787 16.323315,55.122452 12.428015,54.412113 
	C12.259425,55.126778 12.090836,55.841442 11.922247,56.556107 
	C17.668789,53.641624 21.067144,57.657398 25.110462,60.317184 
	C25.196012,63.839405 25.252508,66.899872 25.232807,70.247513 
	C25.803389,71.120247 26.450167,71.705803 27.483627,72.430527 
	C29.237789,72.545670 30.605268,72.521667 32.258644,72.718193 
	C33.589752,74.380875 34.634964,75.823036 35.689068,77.255096 
	C35.697960,77.244995 35.696297,77.271347 35.803474,77.563599 
	C36.629639,78.039162 37.348629,78.222473 38.377838,78.492340 
	C39.108559,78.516937 39.529057,78.454971 40.214706,78.535767 
	C41.109077,78.370354 41.738300,78.062195 42.392113,77.764587 
	C42.416695,77.775131 42.448021,77.732445 42.735638,77.576447 
	C43.412239,76.681503 43.801224,75.942543 44.439079,75.023682 
	C44.826298,74.258011 44.964649,73.672234 45.440311,72.995651 
	C46.210003,72.737900 46.642387,72.570953 47.530201,72.494972 
	C58.346798,72.521721 68.707970,72.457512 79.255386,72.499786 
	C79.761673,72.523567 79.936874,72.317574 80.245049,71.873077 
	C80.731537,71.424179 80.940208,71.090492 81.479599,70.861954 
	C82.027779,71.046097 82.245239,71.125092 82.482521,71.364197 
	C82.502335,71.524323 82.828255,71.578606 82.828255,71.578606 
	C82.828255,71.578606 83.102646,71.392715 83.497086,71.500237 
	C85.247192,71.540131 86.602852,71.472504 88.255791,71.649612 
	C90.386848,74.069260 92.220642,76.244186 94.405403,78.508118 
	C95.476372,78.554245 96.196381,78.511353 97.217331,78.557983 
	C97.935097,78.202423 98.351921,77.757332 98.976128,77.216339 
	C99.456650,76.768272 99.729790,76.416122 100.316444,75.929253 
	C100.768852,75.164780 100.907738,74.535011 101.115189,73.628403 
	C101.178581,72.971642 101.173416,72.591743 101.493011,72.102478 
	C102.226341,71.792778 102.634903,71.592438 103.358337,71.484161 
	C104.101593,71.513985 104.529991,71.451736 105.268082,71.465363 
	C106.385185,71.360825 107.192589,71.180412 108.000000,71.000000 
M3.436014,66.450150 
	C5.531322,67.107208 7.871444,67.370514 9.677242,68.493233 
	C15.727796,72.255043 16.799486,71.937050 18.744854,64.988617 
	C17.103292,68.901840 14.228153,69.249786 10.973595,67.127144 
	C8.942948,65.802734 5.820041,66.153046 3.436014,66.450150 
M4.890102,46.589413 
	C8.481360,45.686325 13.245646,47.750053 15.262486,42.183949 
	C11.872952,42.694550 8.138185,42.375206 5.649280,43.983677 
	C4.292778,44.860325 5.049328,49.006653 4.852881,51.678341 
	C4.522769,51.644501 4.192657,51.610664 3.862545,51.576824 
	C4.047066,50.130589 4.231586,48.684353 4.890102,46.589413 
z"/>
<path fill="#F89050" opacity="1.000000" stroke="none" 
	d="
M96.883163,45.097794 
	C100.471413,48.991436 104.059654,52.885082 107.823944,56.389362 
	C108.000000,60.024544 108.000000,64.049088 107.715561,68.609772 
	C106.606873,69.893776 105.782631,70.641632 104.958382,71.389481 
	C104.529991,71.451736 104.101593,71.513985 103.251785,71.189911 
	C101.725525,69.307175 100.620674,67.810745 99.515831,66.314323 
	C99.146683,66.535828 98.777534,66.757339 98.408379,66.978844 
	C98.624222,67.970062 98.840065,68.961288 99.013733,69.990364 
	C98.971558,70.028221 98.886940,70.103630 98.499115,70.081467 
	C96.012405,69.110085 93.913521,68.160858 91.691811,67.156090 
	C90.734489,68.245598 89.346504,69.825241 87.958511,71.404884 
	C86.602852,71.472504 85.247192,71.540131 83.480904,71.326355 
	C83.070282,71.044952 82.985901,70.706398 83.025322,70.257515 
	C83.098946,60.840492 83.133141,51.872349 83.167336,42.904209 
	C86.468285,42.822838 89.769226,42.741463 93.717331,42.960739 
	C94.894264,43.498070 95.424034,43.734745 95.953804,43.971420 
	C95.953804,43.971420 96.035515,43.965717 96.127380,44.217537 
	C96.390808,44.731369 96.612122,44.940845 96.883163,45.097794 
M95.319466,48.171837 
	C94.983109,47.810070 94.573540,47.492870 94.321922,47.079525 
	C92.206108,43.603878 88.318802,44.167175 86.724266,45.972469 
	C85.111488,47.798424 85.087738,51.635174 85.576988,54.375210 
	C85.744209,55.311722 89.551147,55.928844 91.736885,56.077438 
	C93.747620,56.214146 95.814484,55.525295 98.797501,55.050308 
	C97.660637,52.651230 96.741165,50.710884 95.319466,48.171837 
z"/>
<path fill="#DF8C57" opacity="1.000000" stroke="none" 
	d="
M105.268082,71.465363 
	C105.782631,70.641632 106.606873,69.893776 107.715561,69.072960 
	C108.000000,69.444443 108.000000,69.888893 108.000000,70.666664 
	C107.192589,71.180412 106.385185,71.360825 105.268082,71.465363 
z"/>
<path fill="#FC904D" opacity="1.000000" stroke="none" 
	d="
M25.309004,69.960335 
	C25.252508,66.899872 25.196012,63.839405 25.096367,59.908585 
	C24.981722,58.225086 24.910227,57.411942 24.838734,56.598801 
	C24.951630,50.379791 25.064526,44.160782 25.391420,37.303890 
	C25.777147,36.404472 25.865341,36.117287 25.869997,35.804447 
	C25.869997,35.804447 25.886158,35.898254 26.076576,35.792450 
	C26.510885,35.440033 26.754776,35.193420 26.998669,34.946804 
	C43.882023,34.842052 60.765285,34.691566 77.648781,34.658745 
	C83.142372,34.648064 80.461418,39.115597 81.184937,42.582409 
	C81.134636,52.578014 81.141754,61.667412 81.148872,70.756805 
	C80.940208,71.090492 80.731537,71.424179 80.076187,71.892265 
	C79.402290,72.087090 79.215492,72.209305 79.069138,72.393303 
	C68.707970,72.457512 58.346798,72.521721 47.473923,72.168732 
	C45.395382,69.444992 43.828548,67.138443 42.261715,64.831902 
	C41.765640,65.172379 41.269569,65.512863 40.773495,65.853340 
	C41.509865,67.232162 42.246235,68.610985 42.548573,69.993347 
	C39.982681,69.909615 37.727249,70.233528 35.747917,69.638695 
	C32.777367,68.745979 32.449253,70.529617 31.972750,72.497665 
	C30.605268,72.521667 29.237789,72.545670 27.398518,72.196632 
	C26.387487,71.202499 25.848246,70.581421 25.309004,69.960335 
M36.732998,65.839325 
	C36.898479,65.958504 37.063965,66.077690 37.229446,66.196869 
	C37.124863,66.022308 37.020279,65.847755 36.732998,65.839325 
z"/>
<path fill="#DF8C57" opacity="1.000000" stroke="none" 
	d="
M88.255783,71.649612 
	C89.346504,69.825241 90.734489,68.245598 91.691811,67.156090 
	C93.913521,68.160858 96.012405,69.110085 98.523727,70.456451 
	C98.922287,73.139908 99.211113,75.502090 95.718590,75.644409 
	C95.127159,75.668503 94.607338,77.449707 94.054436,78.419106 
	C92.220642,76.244186 90.386848,74.069260 88.255783,71.649612 
M92.901764,71.984467 
	C92.324203,72.146492 91.709488,72.241310 91.198479,72.523750 
	C91.088135,72.584747 91.351250,73.321426 91.442345,73.746872 
	C91.970528,73.305847 92.498711,72.864822 92.901764,71.984467 
z"/>
<path fill="#DC8A57" opacity="1.000000" stroke="none" 
	d="
M32.258644,72.718193 
	C32.449253,70.529617 32.777367,68.745979 35.747917,69.638695 
	C37.727249,70.233528 39.982681,69.909615 42.556961,69.999039 
	C42.999382,70.001190 43.012177,70.015610 42.989296,70.376297 
	C43.255424,72.057938 43.544434,73.378883 43.919006,74.828339 
	C44.004570,74.956848 44.190205,75.203583 44.190208,75.203583 
	C43.801224,75.942543 43.412239,76.681503 42.475594,77.278992 
	C39.827934,76.327759 37.697418,74.024712 35.680176,77.265190 
	C34.634964,75.823036 33.589752,74.380875 32.258644,72.718193 
M36.444588,71.476433 
	C36.444588,71.476433 36.496643,71.452576 36.444588,71.476433 
z"/>
<path fill="#FECEAF" opacity="1.000000" stroke="none" 
	d="
M81.479599,70.861954 
	C81.141754,61.667412 81.134636,52.578014 81.213608,43.003845 
	C81.724388,42.562534 82.149071,42.605999 82.870544,42.776840 
	C83.133141,51.872349 83.098946,60.840492 82.852829,70.339035 
	C82.640915,70.869438 82.462708,71.204079 82.462708,71.204079 
	C82.245239,71.125092 82.027779,71.046097 81.479599,70.861954 
z"/>
<path fill="#AD6E46" opacity="1.000000" stroke="none" 
	d="
M3.311655,66.100983 
	C5.820041,66.153046 8.942948,65.802734 10.973595,67.127144 
	C14.228153,69.249786 17.103292,68.901840 18.744854,64.988617 
	C16.799486,71.937050 15.727796,72.255043 9.677242,68.493233 
	C7.871444,67.370514 5.531322,67.107208 3.311655,66.100983 
z"/>
<path fill="#AD7753" opacity="1.000000" stroke="none" 
	d="
M4.653105,46.913765 
	C4.231586,48.684353 4.047066,50.130589 3.862545,51.576824 
	C4.192657,51.610664 4.522769,51.644501 4.852881,51.678341 
	C5.049328,49.006653 4.292778,44.860325 5.649280,43.983677 
	C8.138185,42.375206 11.872952,42.694550 15.262486,42.183949 
	C13.245646,47.750053 8.481360,45.686325 4.653105,46.913765 
z"/>
<path fill="#DC8A57" opacity="1.000000" stroke="none" 
	d="
M24.476322,56.570961 
	C24.910227,57.411942 24.981722,58.225086 25.067314,59.446831 
	C21.067144,57.657398 17.668789,53.641624 11.922247,56.556107 
	C12.090836,55.841442 12.259425,55.126778 12.428015,54.412113 
	C16.323315,55.122452 20.218615,55.832787 24.476322,56.570961 
z"/>
<path fill="#F89050" opacity="1.000000" stroke="none" 
	d="
M94.405403,78.508118 
	C94.607338,77.449707 95.127159,75.668503 95.718590,75.644409 
	C99.211113,75.502090 98.922287,73.139908 98.911545,70.478607 
	C98.886940,70.103630 98.971558,70.028221 99.237381,70.203293 
	C100.058220,70.989532 100.613235,71.600685 101.168251,72.211838 
	C101.173416,72.591743 101.178581,72.971642 100.918777,73.864212 
	C100.436852,74.939240 100.219887,75.501602 100.002930,76.063965 
	C99.729790,76.416122 99.456650,76.768272 98.693108,77.261688 
	C97.773926,77.758110 97.345154,78.113281 96.916382,78.468460 
	C96.196381,78.511353 95.476372,78.554245 94.405403,78.508118 
z"/>
<path fill="#DC8A57" opacity="1.000000" stroke="none" 
	d="
M42.990990,69.995499 
	C42.246235,68.610985 41.509865,67.232162 40.773495,65.853340 
	C41.269569,65.512863 41.765640,65.172379 42.261715,64.831902 
	C43.828548,67.138443 45.395382,69.444992 47.018494,72.077774 
	C46.642387,72.570953 46.210003,72.737900 45.341881,72.926041 
	C44.906136,72.947243 44.706043,72.812714 44.749901,72.500244 
	C44.199902,71.463722 43.606037,70.739670 43.012177,70.015610 
	C43.012177,70.015610 42.999382,70.001190 42.990990,69.995499 
z"/>
<path fill="#DF8C57" opacity="1.000000" stroke="none" 
	d="
M101.493011,72.102478 
	C100.613235,71.600685 100.058220,70.989532 99.279556,70.165436 
	C98.840065,68.961288 98.624222,67.970062 98.408379,66.978844 
	C98.777534,66.757339 99.146683,66.535828 99.515831,66.314323 
	C100.620674,67.810745 101.725525,69.307175 102.936920,71.097847 
	C102.634903,71.592438 102.226341,71.792778 101.493011,72.102478 
z"/>
<path fill="#FC904D" opacity="1.000000" stroke="none" 
	d="
M35.689068,77.255096 
	C37.697418,74.024712 39.827934,76.327759 42.187981,77.434982 
	C42.448021,77.732445 42.416695,77.775131 42.132980,77.664505 
	C41.216026,77.833595 40.582790,78.113304 39.949554,78.393005 
	C39.529057,78.454971 39.108559,78.516937 38.218517,78.261749 
	C37.064751,77.720192 36.380524,77.495773 35.696297,77.271347 
	C35.696297,77.271347 35.697960,77.244995 35.689068,77.255096 
z"/>
<path fill="#DC8A57" opacity="1.000000" stroke="none" 
	d="
M40.214703,78.535759 
	C40.582790,78.113304 41.216026,77.833595 42.108395,77.653961 
	C41.738300,78.062195 41.109077,78.370354 40.214703,78.535759 
z"/>
<path fill="#DC8A57" opacity="1.000000" stroke="none" 
	d="
M25.232807,70.247513 
	C25.848246,70.581421 26.387487,71.202499 27.011837,72.057480 
	C26.450167,71.705803 25.803389,71.120247 25.232807,70.247513 
z"/>
<path fill="#DC8A57" opacity="1.000000" stroke="none" 
	d="
M35.803474,77.563599 
	C36.380524,77.495773 37.064751,77.720192 37.908298,78.175201 
	C37.348629,78.222473 36.629639,78.039162 35.803474,77.563599 
z"/>
<path fill="#DF8C57" opacity="1.000000" stroke="none" 
	d="
M100.316444,75.929253 
	C100.219887,75.501602 100.436852,74.939240 100.850220,74.141068 
	C100.907738,74.535011 100.768852,75.164780 100.316444,75.929253 
z"/>
<path fill="#DC8A57" opacity="1.000000" stroke="none" 
	d="
M45.004570,73.016846 
	C44.964649,73.672234 44.826298,74.258011 44.439075,75.023682 
	C44.190205,75.203583 44.004570,74.956848 43.995186,74.580856 
	C44.225880,73.740814 44.465961,73.276764 44.706043,72.812714 
	C44.706043,72.812714 44.906136,72.947243 45.004570,73.016846 
z"/>
<path fill="#DF8C57" opacity="1.000000" stroke="none" 
	d="
M97.217331,78.557983 
	C97.345154,78.113281 97.773926,77.758110 98.485725,77.357590 
	C98.351921,77.757332 97.935097,78.202423 97.217331,78.557983 
z"/>
<path fill="#DF8C57" opacity="1.000000" stroke="none" 
	d="
M95.807419,43.684502 
	C95.424034,43.734745 94.894264,43.498070 94.163620,43.043369 
	C94.528831,43.016094 95.094933,43.206841 95.807419,43.684502 
z"/>
<path fill="#DC8A57" opacity="1.000000" stroke="none" 
	d="
M79.255386,72.499786 
	C79.215492,72.209305 79.402290,72.087090 79.798370,72.007477 
	C79.936874,72.317574 79.761673,72.523567 79.255386,72.499786 
z"/>
<path fill="#DF8C57" opacity="1.000000" stroke="none" 
	d="
M82.482521,71.364197 
	C82.462708,71.204079 82.640915,70.869438 82.813408,70.787918 
	C82.985901,70.706398 83.070282,71.044952 83.086464,71.218834 
	C83.102646,71.392715 82.828255,71.578606 82.828255,71.578606 
	C82.828255,71.578606 82.502335,71.524323 82.482521,71.364197 
z"/>
<path fill="#DF8C57" opacity="1.000000" stroke="none" 
	d="
M96.873230,44.841137 
	C96.612122,44.940845 96.390808,44.731369 96.130981,44.258339 
	C96.316246,44.226372 96.589767,44.405426 96.873230,44.841137 
z"/>
<path fill="#DC8A57" opacity="1.000000" stroke="none" 
	d="
M25.634666,35.921089 
	C25.865341,36.117287 25.777147,36.404472 25.459534,36.841213 
	C25.342211,36.690189 25.370773,36.363964 25.634666,35.921089 
z"/>
<path fill="#DC8A57" opacity="1.000000" stroke="none" 
	d="
M26.701794,34.945244 
	C26.754776,35.193420 26.510885,35.440033 26.029333,35.798244 
	C25.996090,35.587788 26.200506,35.265736 26.701794,34.945244 
z"/>
<path fill="#170F0A" opacity="1.000000" stroke="none" 
	d="
M95.570572,48.471191 
	C96.741165,50.710884 97.660637,52.651230 98.797501,55.050308 
	C95.814484,55.525295 93.747620,56.214146 91.736885,56.077438 
	C89.551147,55.928844 85.744209,55.311722 85.576988,54.375210 
	C85.087738,51.635174 85.111488,47.798424 86.724266,45.972469 
	C88.318802,44.167175 92.206108,43.603878 94.321922,47.079525 
	C94.573540,47.492870 94.983109,47.810070 95.570572,48.471191 
z"/>
<path fill="#DC8A57" opacity="1.000000" stroke="none" 
	d="
M36.824348,65.756256 
	C37.020279,65.847755 37.124863,66.022308 37.229446,66.196869 
	C37.063965,66.077690 36.898479,65.958504 36.824348,65.756256 
z"/>
<path fill="#F89050" opacity="1.000000" stroke="none" 
	d="
M92.964325,72.204132 
	C92.498711,72.864822 91.970528,73.305847 91.442345,73.746872 
	C91.351250,73.321426 91.088135,72.584747 91.198479,72.523750 
	C91.709488,72.241310 92.324203,72.146492 92.964325,72.204132 
z"/>
<path fill="#FC904D" opacity="1.000000" stroke="none" 
	d="
M44.749901,72.500244 
	C44.465961,73.276764 44.225880,73.740814 43.909622,74.452347 
	C43.544434,73.378883 43.255424,72.057938 42.989296,70.376297 
	C43.606037,70.739670 44.199902,71.463722 44.749901,72.500244 
z"/>
<path fill="#FC904D" opacity="1.000000" stroke="none" 
	d="
M36.470615,71.464508 
	C36.496643,71.452576 36.444588,71.476433 36.470615,71.464508 
z"/>
</svg>